PathFileType	4	(X/Y/Z)	C:\Users\Basilio\Documents\Thesis Gigler\squatting_fais\c3dfiles\041\SJ_pre1\markers_experimental.trc
DataRate	CameraRate	NumFrames	NumMarkers	Units	OrigDataRate	OrigDataStartFrame	OrigNumFrames
200.000000	200.000000	4	62	mm	200.000000	317	1270
Frame#	Time	FHD			LBHD			RBHD			C7			T10			CLAV			LSHO			LUUPA			LMUPA			LDUPA			LLEP			LMEP			LRAD			LUL			LRFIN			RSHO			RUPA1			RMUPA			RDUPA			RLEP			RMEP			RRAD			RUL			RUFIN			LASI			RASI			USACR			LSACR			RSACR			LTHI1			LTHI2			LTHI3			LTHI4			LLFC			LMFC			LTIB1			LTIB2			LTIB3			LTIB4			LLMAL			LMMAL			LHEE			LMT1			LMT2			LMT5			RTHI			RTHI2			RTHI3			RTHI4			RLFC			RMFC			RTIB1			RTIB2			RTIB3			RTIB4			RLMAL			RMMAL			RHEE			RMT1			RMT2			RMT5			*61			
		X1	Y1	Z1	X2	Y2	Z2	X3	Y3	Z3	X4	Y4	Z4	X5	Y5	Z5	X6	Y6	Z6	X7	Y7	Z7	X8	Y8	Z8	X9	Y9	Z9	X10	Y10	Z10	X11	Y11	Z11	X12	Y12	Z12	X13	Y13	Z13	X14	Y14	Z14	X15	Y15	Z15	X16	Y16	Z16	X17	Y17	Z17	X18	Y18	Z18	X19	Y19	Z19	X20	Y20	Z20	X21	Y21	Z21	X22	Y22	Z22	X23	Y23	Z23	X24	Y24	Z24	X25	Y25	Z25	X26	Y26	Z26	X27	Y27	Z27	X28	Y28	Z28	X29	Y29	Z29	X30	Y30	Z30	X31	Y31	Z31	X32	Y32	Z32	X33	Y33	Z33	X34	Y34	Z34	X35	Y35	Z35	X36	Y36	Z36	X37	Y37	Z37	X38	Y38	Z38	X39	Y39	Z39	X40	Y40	Z40	X41	Y41	Z41	X42	Y42	Z42	X43	Y43	Z43	X44	Y44	Z44	X45	Y45	Z45	X46	Y46	Z46	X47	Y47	Z47	X48	Y48	Z48	X49	Y49	Z49	X50	Y50	Z50	X51	Y51	Z51	X52	Y52	Z52	X53	Y53	Z53	X54	Y54	Z54	X55	Y55	Z55	X56	Y56	Z56	X57	Y57	Z57	X58	Y58	Z58	X59	Y59	Z59	X60	Y60	Z60	X61	Y61	Z61	X62	Y62	Z62	

318	1.585	-192.7810974121094	1742.746704101563	-886.768493652344	-352.7245178222657	1647.790405273438	-968.6658325195315	-337.2690429687501	1650.224487304688	-816.2077636718752	-382.4509887695313	1520.282470703125	-905.1005859375002	-445.7879333496095	1210.947875976563	-907.6533203125002	-225.8749542236329	1447.547729492188	-905.6774902343752	-293.2348632812501	1509.648071289063	-1078.402099609375	-368.5311889648438	1388.60205078125	-1218.943359375	-355.3962402343751	1340.766723632813	-1219.118896484375	-400.0154418945314	1342.78857421875	-1260.491455078125	-420.9840393066407	1299.177734375	-1285.093017578125	-485.9518127441407	1273.794555664063	-1224.697631835938	-382.9732666015626	1088.350219726563	-1120.650024414063	-373.8980102539063	1046.43896484375	-1181.841552734375	-334.7743225097657	1063.17822265625	-1086.274536132813	-282.2538757324219	1507.056274414063	-734.0251464843751	-372.3544311523438	1373.525634765625	-578.0814819335939	-335.3490295410157	1338.782470703125	-582.8078002929689	-367.5531311035157	1311.199462890625	-543.4176025390626	-372.3375244140626	1262.779174804688	-526.9941406250001	-449.3886108398439	1252.495971679688	-580.2415771484376	-391.6882324218751	1065.7734375	-696.5751342773439	-346.0559997558594	1052.114990234375	-737.2130126953126	-367.3156127929688	1019.42626953125	-640.4594116210939	-296.9692382812501	1003.790832519531	-1020.460021972656	-303.3367614746094	995.6835937500002	-804.3756103515627	-469.7082519531251	1095.867797851563	-913.0188598632815	-487.8834838867189	1071.402099609375	-940.2286376953127	-489.9817810058595	1071.766357421875	-885.355163574219	-414.9754943847657	807.536560058594	-1111.028564453125	-367.6336364746094	738.6071777343751	-1124.708984375	-321.5220947265626	750.0255126953126	-1119.264038085938	-384.4183654785157	679.5769653320314	-1116.508422851563	-330.6149597167969	508.9692993164064	-1134.255981445313	-306.7209777832032	478.354217529297	-1022.60107421875	-305.9059753417969	312.5431823730469	-1102.076049804688	-362.9719848632813	280.3521423339844	-1164.194580078125	-324.9187011718751	272.1883239746094	-1142.932250976563	-327.9862365722657	191.2531433105469	-1116.766723632813	-398.1910400390626	100.9932098388672	-1163.815673828125	-350.1856994628907	105.6895217895508	-1085.762329101563	-451.9101562500001	51.54680252075197	-1121.844482421875	-234.9131469726563	66.74226379394533	-1119.817626953125	-233.5366668701172	68.41155242919923	-1165.3369140625	-279.5758361816407	39.3935661315918	-1213.621215820313	-405.9373168945314	750.7864990234376	-712.0058593750001	-360.2159729003907	704.7802734375001	-698.0128173828126	-327.2891235351563	711.8420410156251	-699.8094482421876	-371.7287902832032	621.1660766601564	-708.4493408203126	-348.6264343261719	501.4955444335939	-693.1566162109376	-314.6969604492188	473.2510681152345	-803.206726074219	-315.3525085449219	334.5013427734376	-683.1130371093751	-401.9193115234376	262.5910949707032	-669.9808959960939	-355.1163330078126	258.6711425781251	-666.2851562500001	-332.5901794433594	207.5689849853516	-687.7133789062501	-391.8547973632814	93.18862915039064	-669.0841674804689	-356.9171447753907	104.7655181884766	-747.3700561523439	-445.7181701660157	49.47670745849611	-720.5975341796876	-228.6186981201172	53.94988250732423	-713.4076538085939	-229.9190368652344	58.36835861206056	-661.7497558593751	-275.2301330566407	37.28815841674805	-614.9620971679689	-4217.000976562501	853.1541748046877	-3944.763427734376	
319	1.59	-192.3972473144532	1742.315551757813	-886.8405761718752	-352.0838623046876	1646.955322265625	-968.8259277343752	-336.7861633300782	1649.384399414063	-816.3431396484377	-381.8056030273438	1519.785888671875	-905.2212524414065	-445.8270874023439	1210.570556640625	-907.7808837890627	-225.4075317382813	1446.8359375	-905.7205200195315	-292.3872985839844	1508.931030273438	-1078.49755859375	-367.6838378906251	1388.15869140625	-1219.1328125	-354.6501159667969	1340.103637695313	-1219.292602539063	-399.4368286132814	1342.149047851563	-1260.583984375	-420.1618652343751	1298.759033203125	-1285.411743164063	-485.4651794433595	1273.758422851563	-1225.171630859375	-383.3501281738282	1087.880737304688	-1120.714233398438	-374.6092224121094	1045.8623046875	-1181.751342773438	-335.4486389160157	1062.647338867188	-1086.216918945313	-281.6667480468751	1506.374877929688	-734.1900634765626	-371.3736877441407	1372.943603515625	-578.3657836914064	-334.7612609863282	1338.27197265625	-583.0380249023439	-366.9694213867188	1310.658935546875	-543.4300537109376	-371.9004821777344	1262.087890625	-526.9710693359376	-449.0902709960939	1252.28662109375	-580.1720581054689	-392.1432495117189	1065.27490234375	-696.6542358398439	-346.6616516113282	1051.608154296875	-737.3607788085939	-367.7342224121094	1018.899169921875	-640.6823120117189	-297.6707763671876	1003.0712890625	-1020.409912109375	-303.9346923828126	995.0271606445315	-804.5642700195315	-470.2241821289064	1095.598754882813	-913.1044921875002	-488.3867492675782	1071.223510742188	-940.265563964844	-490.6299133300782	1071.612548828125	-885.466003417969	-415.1681518554689	806.9878540039065	-1111.12744140625	-367.5296936035157	738.2348632812501	-1124.943725585938	-321.4489135742188	749.8055419921876	-1119.471557617188	-384.016571044922	679.0962524414064	-1116.74951171875	-329.6404724121094	508.7978820800782	-1134.69384765625	-305.5748596191407	478.260223388672	-1023.243286132813	-305.2800903320313	312.4179992675782	-1102.290405273438	-362.5434570312501	280.1308898925782	-1164.38916015625	-324.4848022460938	272.0284118652344	-1143.03076171875	-327.6033325195313	190.7871398925782	-1117.299926757813	-398.0636596679689	100.9755096435547	-1163.902099609375	-350.0624389648438	105.6994552612305	-1085.817016601563	-451.8826904296876	51.58636856079103	-1121.875244140625	-234.5286254882813	66.43894958496095	-1119.751220703125	-233.4004211425782	68.2527313232422	-1165.276123046875	-279.4566345214844	39.30101394653321	-1213.663330078125	-405.9385375976564	750.4191284179689	-711.9560546875001	-360.1403808593751	704.4274902343751	-698.0230102539064	-327.2009277343751	711.6553955078126	-699.6603393554689	-371.2527160644532	620.7346801757814	-708.5402221679689	-347.6151123046876	501.304656982422	-692.7315673828126	-313.8361816406251	473.2004699707032	-802.8995361328127	-314.6034851074219	334.1157836914063	-682.7118530273439	-401.4985656738282	262.6162719726563	-669.7543945312501	-354.4709777832032	258.5152893066407	-666.2349853515626	-332.1624450683594	207.4383392333985	-687.6882934570314	-391.8035888671876	93.20632171630861	-669.0180053710939	-356.8589172363282	104.7946014404297	-747.4132080078126	-445.7075195312501	49.46480178833009	-720.5670166015626	-228.6143951416016	53.95451736450197	-713.4497070312501	-229.8963928222657	58.51515579223634	-661.7852783203126	-275.2544860839844	37.3157081604004	-615.0117187500001	-4216.796386718751	853.1339111328127	-3944.814453125001	
320	1.595	-191.6439208984375	1741.631225585938	-886.9776611328127	-351.1469116210938	1646.060180664063	-968.9111938476565	-336.0012512207032	1648.5771484375	-816.5371093750002	-380.8836975097657	1519.071899414063	-905.3341064453127	-445.8453369140626	1210.13916015625	-907.9448852539065	-225.1232147216797	1445.77392578125	-905.8123168945315	-291.3919372558594	1508.11865234375	-1078.55712890625	-366.7162170410157	1387.600219726563	-1219.364013671875	-353.7811889648438	1339.3701171875	-1219.599609375	-398.6303710937501	1341.53466796875	-1260.773681640625	-419.3522949218751	1298.21923828125	-1285.700073242188	-484.9364013671876	1273.4931640625	-1225.65771484375	-383.8946838378907	1087.389892578125	-1120.794189453125	-375.2804565429688	1045.30126953125	-1181.721313476563	-335.2215270996094	1061.631469726563	-1086.19775390625	-280.9411010742188	1505.481689453125	-734.3032836914064	-370.8612060546876	1372.318603515625	-578.2621459960939	-334.0657348632813	1337.67919921875	-583.1422729492189	-366.3341674804688	1309.87353515625	-543.6408691406251	-371.5791320800782	1261.600463867188	-527.0043945312501	-448.7255859375001	1251.966796875	-580.0711669921876	-392.6971435546876	1064.906860351563	-696.7867431640626	-347.0376281738282	1051.226806640625	-737.5617065429689	-368.0289001464844	1018.430969238281	-640.7519531250001	-298.6543273925782	1002.18310546875	-1020.176025390625	-304.8124389648438	994.106628417969	-804.7445068359377	-470.6924438476564	1095.38916015625	-913.1741943359377	-488.9827575683595	1071.016967773438	-940.333190917969	-491.1338806152345	1071.383422851563	-885.5405883789065	-415.3394775390626	806.4509277343752	-1111.262329101563	-367.4343872070313	737.9719848632814	-1125.14111328125	-321.3172302246094	749.5344848632814	-1119.6455078125	-383.6874694824219	678.6052246093751	-1116.976196289063	-328.6892700195313	508.6060180664064	-1135.106201171875	-305.0569763183594	478.1882324218751	-1023.191467285156	-304.6123962402344	312.2519531250001	-1102.493286132813	-362.1844787597657	279.8945617675782	-1164.62939453125	-324.1027526855469	271.9867248535157	-1143.162231445313	-327.0983886718751	190.7739410400391	-1117.774536132813	-398.0025024414064	100.9561233520508	-1163.95947265625	-349.9570007324219	105.6285705566407	-1085.848999023438	-451.8628234863282	51.61609268188478	-1121.882690429688	-234.826644897461	66.50382232666017	-1119.744018554688	-233.3422393798829	68.07156372070314	-1165.23388671875	-279.4956054687501	39.26836776733399	-1213.675903320313	-405.9927673339845	749.9025268554689	-711.9232177734376	-359.9409484863282	704.1427612304689	-697.8584594726564	-327.0893859863282	711.4392089843751	-699.5005493164064	-370.5163574218751	620.3117675781251	-708.5247802734376	-346.5236511230469	501.1653442382814	-692.3474121093751	-313.4147338867188	473.3146362304689	-802.6956787109377	-313.9581909179688	334.0022888183594	-682.4564208984376	-400.8151245117189	262.5369262695313	-669.5849609375001	-353.9416198730469	258.3593139648438	-666.2157592773439	-331.6476440429688	207.3069610595704	-687.7174682617189	-391.6936340332032	93.18242645263673	-668.9694824218751	-356.8151550292969	104.8454818725586	-747.4610595703126	-445.4747314453126	49.50217056274415	-720.7395019531251	-228.5709686279297	53.97663879394533	-713.4959716796876	-229.837142944336	58.5646209716797	-661.7957153320314	-275.2337951660157	37.41857147216798	-615.0963745117189	-4217.379394531251	853.2666625976565	-3944.770751953126	
321	1.6	-190.908935546875	1740.838623046875	-887.160095214844	-350.3595275878907	1645.137084960938	-968.9598388671877	-335.0873413085938	1647.546997070313	-816.4799804687502	-380.2116699218751	1518.364013671875	-905.555114746094	-445.8795776367189	1209.68115234375	-908.0963134765627	-224.2347717285157	1445.010498046875	-905.9157714843752	-290.4259033203126	1507.31103515625	-1078.643310546875	-366.0521850585938	1386.849853515625	-1219.604858398438	-353.0429992675782	1338.931030273438	-1219.919921875	-397.4502258300782	1340.93505859375	-1261.22900390625	-418.608123779297	1297.654907226563	-1285.902465820313	-484.3814392089845	1273.312622070313	-1226.135986328125	-384.5159606933595	1086.79638671875	-1120.853637695313	-375.8501892089844	1044.5859375	-1181.641235351563	-336.6836547851563	1061.283325195313	-1086.044921875	-280.2638854980469	1504.771362304688	-734.3172607421876	-370.3719787597657	1371.491577148438	-578.1877441406251	-333.4914855957032	1336.857177734375	-583.0885620117189	-365.6771240234376	1309.19873046875	-543.7664184570314	-370.9259643554688	1260.899780273438	-527.1576538085939	-448.3898925781251	1251.567138671875	-580.0140380859376	-393.3300781250001	1064.478393554688	-696.9503784179689	-347.5018005371094	1050.9326171875	-737.7723388671876	-368.5578918457032	1017.867980957031	-641.0128784179689	-299.4268798828126	1001.373962402344	-1020.003234863281	-305.7758483886719	993.3969726562502	-804.8973388671877	-471.1493225097657	1095.159057617188	-913.2791137695315	-489.5684814453126	1070.751586914063	-940.4600219726565	-491.6232299804689	1071.126342773438	-885.5081787109377	-415.5131835937501	805.8353271484377	-1111.450317382813	-367.3232116699219	737.5731811523439	-1125.353637695313	-321.2471313476563	749.2778930664064	-1119.8701171875	-383.3458862304688	678.0910034179689	-1117.292236328125	-327.6319580078126	508.3432922363282	-1135.423095703125	-303.7182617187501	477.9339599609376	-1023.737243652344	-303.8246765136719	312.1555175781251	-1102.772583007813	-361.2554016113282	279.9044799804688	-1164.717651367188	-323.2546386718751	271.8167724609376	-1143.451293945313	-326.8938903808594	190.8622589111328	-1117.68310546875	-397.9090576171876	100.987548828125	-1163.99560546875	-349.9206848144532	105.6481018066407	-1085.886108398438	-451.8396911621095	51.58837509155275	-1121.88427734375	-234.6841430664063	66.37792205810548	-1119.742553710938	-233.2727813720704	67.96099853515626	-1165.215698242188	-279.4922485351563	39.21904373168946	-1213.684814453125	-405.7447814941407	749.2014770507814	-711.9376831054689	-359.6546325683594	703.7849121093751	-697.7141723632814	-326.9697265625001	711.2291870117189	-699.3106079101564	-370.0484313964844	619.8903808593751	-708.2373657226564	-345.4323120117188	500.9231567382814	-691.8825683593751	-312.1986083984376	473.2637939453126	-802.354675292969	-313.1132812500001	333.8906555175782	-682.3317260742189	-399.9388427734376	262.4450683593751	-669.6004638671876	-353.3055114746094	258.0859985351563	-666.2097778320314	-331.2798767089844	207.1574707031251	-687.7059936523439	-391.5714111328126	93.22328948974611	-668.9880981445314	-356.7500305175782	104.8537292480469	-747.4751586914064	-445.4389953613282	49.5010452270508	-720.7867431640626	-228.5847167968751	54.02435684204103	-713.5061035156251	-229.8507690429688	58.6941261291504	-661.8527221679689	-275.1971130371094	37.51431274414063	-615.1541748046876	-4216.884277343751	853.1466064453127	-3944.798583984376	
